<mxfile host="www.draw.io" modified="2019-11-04T04:00:33.146Z" agent="Mozilla/5.0 (Windows NT 6.1; WOW64) AppleWebKit/537.36 (KHTML, like Gecko) Chrome/73.0.3683.103 Safari/537.36" etag="Y2_0Tb2DtNpNLyvVbOg4" version="12.1.9" type="github" pages="1">
  <diagram name="Page-1" id="13e1069c-82ec-6db2-03f1-153e76fe0fe0">
    <mxGraphModel dx="1088" dy="600" grid="1" gridSize="10" guides="1" tooltips="1" connect="1" arrows="1" fold="1" page="1" pageScale="1" pageWidth="1100" pageHeight="850" background="#ffffff" math="0" shadow="0">
      <root>
        <mxCell id="0"/>
        <mxCell id="1" parent="0"/>
        <mxCell id="kO_2NhWMSLPStZXaVG_8-9" style="edgeStyle=orthogonalEdgeStyle;rounded=0;orthogonalLoop=1;jettySize=auto;html=1;entryX=-0.2;entryY=0.02;entryDx=0;entryDy=0;entryPerimeter=0;" edge="1" parent="1" source="7baba1c4bc27f4b0-2" target="7baba1c4bc27f4b0-13">
          <mxGeometry relative="1" as="geometry">
            <Array as="points">
              <mxPoint x="360" y="314"/>
              <mxPoint x="360" y="314"/>
            </Array>
          </mxGeometry>
        </mxCell>
        <mxCell id="7baba1c4bc27f4b0-2" value="SystemServer" style="shape=umlLifeline;perimeter=lifelinePerimeter;whiteSpace=wrap;html=1;container=1;collapsible=0;recursiveResize=0;outlineConnect=0;rounded=1;shadow=0;comic=0;labelBackgroundColor=none;strokeColor=#82b366;strokeWidth=1;fillColor=#d5e8d4;fontFamily=Verdana;fontSize=12;align=center;" parent="1" vertex="1">
          <mxGeometry x="240" y="80" width="100" height="580" as="geometry"/>
        </mxCell>
        <mxCell id="kO_2NhWMSLPStZXaVG_8-8" style="edgeStyle=orthogonalEdgeStyle;rounded=0;orthogonalLoop=1;jettySize=auto;html=1;" edge="1" parent="7baba1c4bc27f4b0-2" source="kO_2NhWMSLPStZXaVG_8-4">
          <mxGeometry relative="1" as="geometry">
            <mxPoint x="50" y="208" as="targetPoint"/>
            <Array as="points">
              <mxPoint x="75" y="150"/>
              <mxPoint x="75" y="208"/>
            </Array>
          </mxGeometry>
        </mxCell>
        <mxCell id="kO_2NhWMSLPStZXaVG_8-4" value="run" style="html=1;points=[];perimeter=orthogonalPerimeter;rounded=0;shadow=0;comic=0;labelBackgroundColor=none;strokeColor=#000000;strokeWidth=1;fillColor=#FFFFFF;fontFamily=Verdana;fontSize=12;fontColor=#000000;align=center;" vertex="1" parent="7baba1c4bc27f4b0-2">
          <mxGeometry x="45" y="100" width="10" height="70" as="geometry"/>
        </mxCell>
        <mxCell id="kO_2NhWMSLPStZXaVG_8-7" value="startOtherServices" style="html=1;points=[];perimeter=orthogonalPerimeter;rounded=0;shadow=0;comic=0;labelBackgroundColor=none;strokeColor=#000000;strokeWidth=1;fillColor=#FFFFFF;fontFamily=Verdana;fontSize=12;fontColor=#000000;align=center;" vertex="1" parent="7baba1c4bc27f4b0-2">
          <mxGeometry x="45" y="200" width="10" height="100" as="geometry"/>
        </mxCell>
        <mxCell id="7baba1c4bc27f4b0-3" value="SystemUIService" style="shape=umlLifeline;perimeter=lifelinePerimeter;whiteSpace=wrap;html=1;container=1;collapsible=0;recursiveResize=0;outlineConnect=0;rounded=1;shadow=0;comic=0;labelBackgroundColor=none;strokeColor=#82b366;strokeWidth=1;fillColor=#d5e8d4;fontFamily=Verdana;fontSize=12;align=center;" parent="1" vertex="1">
          <mxGeometry x="367.5" y="80" width="100" height="580" as="geometry"/>
        </mxCell>
        <mxCell id="7baba1c4bc27f4b0-13" value="" style="html=1;points=[];perimeter=orthogonalPerimeter;rounded=0;shadow=0;comic=0;labelBackgroundColor=none;strokeColor=#000000;strokeWidth=1;fillColor=#FFFFFF;fontFamily=Verdana;fontSize=12;fontColor=#000000;align=center;" parent="7baba1c4bc27f4b0-3" vertex="1">
          <mxGeometry x="40" y="230" width="10" height="340" as="geometry"/>
        </mxCell>
        <mxCell id="7baba1c4bc27f4b0-4" value="SystemUIApplication" style="shape=umlLifeline;perimeter=lifelinePerimeter;whiteSpace=wrap;html=1;container=1;collapsible=0;recursiveResize=0;outlineConnect=0;rounded=1;shadow=0;comic=0;labelBackgroundColor=none;strokeColor=#82b366;strokeWidth=1;fillColor=#d5e8d4;fontFamily=Verdana;fontSize=12;align=center;" parent="1" vertex="1">
          <mxGeometry x="490" y="80" width="155" height="580" as="geometry"/>
        </mxCell>
        <mxCell id="7baba1c4bc27f4b0-37" value="" style="html=1;points=[];perimeter=orthogonalPerimeter;rounded=0;shadow=0;comic=0;labelBackgroundColor=none;strokeColor=#000000;strokeWidth=1;fillColor=#FFFFFF;fontFamily=Verdana;fontSize=12;fontColor=#000000;align=center;" parent="7baba1c4bc27f4b0-4" vertex="1">
          <mxGeometry x="72.5" y="230" width="10" height="330" as="geometry"/>
        </mxCell>
        <mxCell id="kO_2NhWMSLPStZXaVG_8-32" value="" style="html=1;points=[];perimeter=orthogonalPerimeter;rounded=0;shadow=0;comic=0;labelBackgroundColor=none;strokeColor=#000000;strokeWidth=1;fillColor=#FFFFFF;fontFamily=Verdana;fontSize=12;fontColor=#000000;align=center;" vertex="1" parent="7baba1c4bc27f4b0-4">
          <mxGeometry x="82.5" y="315" width="10" height="60" as="geometry"/>
        </mxCell>
        <mxCell id="7baba1c4bc27f4b0-5" value="SystemBars" style="shape=umlLifeline;perimeter=lifelinePerimeter;whiteSpace=wrap;html=1;container=1;collapsible=0;recursiveResize=0;outlineConnect=0;rounded=1;shadow=0;comic=0;labelBackgroundColor=none;strokeColor=#82b366;strokeWidth=1;fillColor=#d5e8d4;fontFamily=Verdana;fontSize=12;align=center;" parent="1" vertex="1">
          <mxGeometry x="670" y="80" width="100" height="580" as="geometry"/>
        </mxCell>
        <mxCell id="7baba1c4bc27f4b0-19" value="" style="html=1;points=[];perimeter=orthogonalPerimeter;rounded=0;shadow=0;comic=0;labelBackgroundColor=none;strokeColor=#000000;strokeWidth=1;fillColor=#FFFFFF;fontFamily=Verdana;fontSize=12;fontColor=#000000;align=center;" parent="7baba1c4bc27f4b0-5" vertex="1">
          <mxGeometry x="45" y="340" width="10" height="230" as="geometry"/>
        </mxCell>
        <mxCell id="kO_2NhWMSLPStZXaVG_8-43" value="" style="html=1;points=[];perimeter=orthogonalPerimeter;rounded=0;shadow=0;comic=0;labelBackgroundColor=none;strokeColor=#000000;strokeWidth=1;fillColor=#FFFFFF;fontFamily=Verdana;fontSize=12;fontColor=#000000;align=center;" vertex="1" parent="7baba1c4bc27f4b0-5">
          <mxGeometry x="50" y="400" width="10" height="100" as="geometry"/>
        </mxCell>
        <mxCell id="7baba1c4bc27f4b0-6" value="StatusBar" style="shape=umlLifeline;perimeter=lifelinePerimeter;whiteSpace=wrap;html=1;container=1;collapsible=0;recursiveResize=0;outlineConnect=0;rounded=1;shadow=0;comic=0;labelBackgroundColor=none;strokeColor=#82b366;strokeWidth=1;fillColor=#d5e8d4;fontFamily=Verdana;fontSize=12;align=center;" parent="1" vertex="1">
          <mxGeometry x="820" y="80" width="100" height="770" as="geometry"/>
        </mxCell>
        <mxCell id="kO_2NhWMSLPStZXaVG_8-21" value="" style="html=1;points=[];perimeter=orthogonalPerimeter;rounded=0;shadow=0;comic=0;labelBackgroundColor=none;strokeColor=#000000;strokeWidth=1;fillColor=#FFFFFF;fontFamily=Verdana;fontSize=12;fontColor=#000000;align=center;" vertex="1" parent="7baba1c4bc27f4b0-6">
          <mxGeometry x="45" y="440" width="10" height="330" as="geometry"/>
        </mxCell>
        <mxCell id="7baba1c4bc27f4b0-7" value="StatusBarWindowManager" style="shape=umlLifeline;perimeter=lifelinePerimeter;whiteSpace=wrap;html=1;container=1;collapsible=0;recursiveResize=0;outlineConnect=0;rounded=1;shadow=0;comic=0;labelBackgroundColor=none;strokeColor=#82b366;strokeWidth=1;fillColor=#d5e8d4;fontFamily=Verdana;fontSize=12;align=center;" parent="1" vertex="1">
          <mxGeometry x="960" y="80" width="90" height="760" as="geometry"/>
        </mxCell>
        <mxCell id="7baba1c4bc27f4b0-25" value="" style="html=1;points=[];perimeter=orthogonalPerimeter;rounded=0;shadow=0;comic=0;labelBackgroundColor=none;strokeColor=#000000;strokeWidth=1;fillColor=#FFFFFF;fontFamily=Verdana;fontSize=12;fontColor=#000000;align=center;" parent="7baba1c4bc27f4b0-7" vertex="1">
          <mxGeometry x="40" y="555" width="10" height="55" as="geometry"/>
        </mxCell>
        <mxCell id="7baba1c4bc27f4b0-8" value="Zygote" style="shape=umlLifeline;perimeter=lifelinePerimeter;whiteSpace=wrap;html=1;container=1;collapsible=0;recursiveResize=0;outlineConnect=0;rounded=1;shadow=0;comic=0;labelBackgroundColor=none;strokeColor=#82b366;strokeWidth=1;fillColor=#d5e8d4;fontFamily=Verdana;fontSize=12;align=center;" parent="1" vertex="1">
          <mxGeometry x="100" y="80" width="100" height="580" as="geometry"/>
        </mxCell>
        <mxCell id="7baba1c4bc27f4b0-9" value="开机启动" style="html=1;points=[];perimeter=orthogonalPerimeter;rounded=0;shadow=0;comic=0;labelBackgroundColor=none;strokeColor=#000000;strokeWidth=1;fillColor=#FFFFFF;fontFamily=Verdana;fontSize=12;fontColor=#000000;align=center;" parent="7baba1c4bc27f4b0-8" vertex="1">
          <mxGeometry x="45" y="100" width="10" height="440" as="geometry"/>
        </mxCell>
        <mxCell id="kO_2NhWMSLPStZXaVG_8-6" value="" style="edgeStyle=elbowEdgeStyle;elbow=horizontal;endArrow=classic;html=1;exitX=0.7;exitY=0.002;exitDx=0;exitDy=0;exitPerimeter=0;" edge="1" parent="1" source="7baba1c4bc27f4b0-9">
          <mxGeometry width="50" height="50" relative="1" as="geometry">
            <mxPoint x="100" y="730" as="sourcePoint"/>
            <mxPoint x="280" y="181" as="targetPoint"/>
            <Array as="points">
              <mxPoint x="200" y="170"/>
            </Array>
          </mxGeometry>
        </mxCell>
        <mxCell id="kO_2NhWMSLPStZXaVG_8-35" style="edgeStyle=orthogonalEdgeStyle;rounded=0;orthogonalLoop=1;jettySize=auto;html=1;entryX=0.2;entryY=0.012;entryDx=0;entryDy=0;entryPerimeter=0;" edge="1" parent="1" source="kO_2NhWMSLPStZXaVG_8-10" target="7baba1c4bc27f4b0-37">
          <mxGeometry relative="1" as="geometry">
            <mxPoint x="530" y="315" as="targetPoint"/>
          </mxGeometry>
        </mxCell>
        <mxCell id="kO_2NhWMSLPStZXaVG_8-10" value="startSystemUi" style="text;html=1;" vertex="1" parent="1">
          <mxGeometry x="317.5" y="300" width="100" height="30" as="geometry"/>
        </mxCell>
        <mxCell id="kO_2NhWMSLPStZXaVG_8-33" value="startServicesIfNeeded" style="text;html=1;" vertex="1" parent="1">
          <mxGeometry x="427.5" y="295" width="140" height="30" as="geometry"/>
        </mxCell>
        <mxCell id="kO_2NhWMSLPStZXaVG_8-37" style="edgeStyle=orthogonalEdgeStyle;rounded=0;orthogonalLoop=1;jettySize=auto;html=1;exitX=1.05;exitY=0.042;exitDx=0;exitDy=0;exitPerimeter=0;" edge="1" parent="1" source="7baba1c4bc27f4b0-37">
          <mxGeometry relative="1" as="geometry">
            <mxPoint x="590" y="410" as="targetPoint"/>
            <Array as="points">
              <mxPoint x="610" y="324"/>
              <mxPoint x="610" y="410"/>
            </Array>
          </mxGeometry>
        </mxCell>
        <mxCell id="kO_2NhWMSLPStZXaVG_8-38" value="startServicesIfNeeded" style="text;html=1;" vertex="1" parent="1">
          <mxGeometry x="530" y="345" width="140" height="30" as="geometry"/>
        </mxCell>
        <mxCell id="kO_2NhWMSLPStZXaVG_8-40" style="edgeStyle=orthogonalEdgeStyle;rounded=0;orthogonalLoop=1;jettySize=auto;html=1;" edge="1" parent="1" source="kO_2NhWMSLPStZXaVG_8-32" target="7baba1c4bc27f4b0-19">
          <mxGeometry relative="1" as="geometry">
            <mxPoint x="710" y="425" as="targetPoint"/>
            <Array as="points">
              <mxPoint x="680" y="425"/>
              <mxPoint x="680" y="425"/>
            </Array>
          </mxGeometry>
        </mxCell>
        <mxCell id="kO_2NhWMSLPStZXaVG_8-41" value="start" style="text;html=1;resizable=0;points=[];align=center;verticalAlign=middle;labelBackgroundColor=#ffffff;" vertex="1" connectable="0" parent="kO_2NhWMSLPStZXaVG_8-40">
          <mxGeometry x="0.1719" relative="1" as="geometry">
            <mxPoint x="1" as="offset"/>
          </mxGeometry>
        </mxCell>
        <mxCell id="kO_2NhWMSLPStZXaVG_8-42" style="edgeStyle=orthogonalEdgeStyle;rounded=0;orthogonalLoop=1;jettySize=auto;html=1;" edge="1" parent="1">
          <mxGeometry relative="1" as="geometry">
            <mxPoint x="860" y="520" as="targetPoint"/>
            <mxPoint x="731" y="520" as="sourcePoint"/>
            <Array as="points">
              <mxPoint x="731" y="520"/>
              <mxPoint x="860" y="520"/>
            </Array>
          </mxGeometry>
        </mxCell>
        <mxCell id="kO_2NhWMSLPStZXaVG_8-46" style="edgeStyle=orthogonalEdgeStyle;rounded=0;orthogonalLoop=1;jettySize=auto;html=1;" edge="1" parent="1">
          <mxGeometry relative="1" as="geometry">
            <mxPoint x="727" y="490" as="targetPoint"/>
            <mxPoint x="727" y="440" as="sourcePoint"/>
            <Array as="points">
              <mxPoint x="747" y="440"/>
              <mxPoint x="747" y="490"/>
            </Array>
          </mxGeometry>
        </mxCell>
        <mxCell id="kO_2NhWMSLPStZXaVG_8-47" value="createStatusBarFromConfig" style="text;html=1;resizable=0;points=[];align=center;verticalAlign=middle;labelBackgroundColor=#ffffff;" vertex="1" connectable="0" parent="kO_2NhWMSLPStZXaVG_8-46">
          <mxGeometry x="-0.5556" y="-11" relative="1" as="geometry">
            <mxPoint x="12" y="11" as="offset"/>
          </mxGeometry>
        </mxCell>
        <mxCell id="kO_2NhWMSLPStZXaVG_8-48" value="start" style="text;html=1;" vertex="1" parent="1">
          <mxGeometry x="780" y="510" width="50" height="30" as="geometry"/>
        </mxCell>
        <mxCell id="kO_2NhWMSLPStZXaVG_8-54" value="WindowManager" style="shape=umlLifeline;perimeter=lifelinePerimeter;whiteSpace=wrap;html=1;container=1;collapsible=0;recursiveResize=0;outlineConnect=0;rounded=1;shadow=0;comic=0;labelBackgroundColor=none;strokeColor=#82b366;strokeWidth=1;fillColor=#d5e8d4;fontFamily=Verdana;fontSize=12;align=center;" vertex="1" parent="1">
          <mxGeometry x="1110" y="80" width="100" height="580" as="geometry"/>
        </mxCell>
        <mxCell id="kO_2NhWMSLPStZXaVG_8-62" value="add" style="edgeStyle=orthogonalEdgeStyle;rounded=0;orthogonalLoop=1;jettySize=auto;html=1;" edge="1" parent="1" source="kO_2NhWMSLPStZXaVG_8-56">
          <mxGeometry relative="1" as="geometry">
            <mxPoint x="997" y="644" as="targetPoint"/>
            <Array as="points">
              <mxPoint x="990" y="640"/>
              <mxPoint x="990" y="644"/>
            </Array>
          </mxGeometry>
        </mxCell>
        <mxCell id="kO_2NhWMSLPStZXaVG_8-56" value="" style="html=1;points=[];perimeter=orthogonalPerimeter;rounded=0;shadow=0;comic=0;labelBackgroundColor=none;strokeColor=#000000;strokeWidth=1;fillColor=#FFFFFF;fontFamily=Verdana;fontSize=12;fontColor=#000000;align=center;" vertex="1" parent="1">
          <mxGeometry x="870" y="580" width="10" height="260" as="geometry"/>
        </mxCell>
        <mxCell id="kO_2NhWMSLPStZXaVG_8-59" style="edgeStyle=orthogonalEdgeStyle;rounded=0;orthogonalLoop=1;jettySize=auto;html=1;entryX=1;entryY=0.05;entryDx=0;entryDy=0;entryPerimeter=0;" edge="1" parent="1" target="kO_2NhWMSLPStZXaVG_8-56">
          <mxGeometry relative="1" as="geometry">
            <mxPoint x="890" y="570" as="targetPoint"/>
            <mxPoint x="870" y="535" as="sourcePoint"/>
            <Array as="points">
              <mxPoint x="900" y="535"/>
              <mxPoint x="900" y="593"/>
            </Array>
          </mxGeometry>
        </mxCell>
        <mxCell id="kO_2NhWMSLPStZXaVG_8-60" value="&lt;span style=&quot;font-family: &amp;#34;helvetica&amp;#34; , &amp;#34;arial&amp;#34; , sans-serif ; font-size: 0px ; background-color: rgb(248 , 249 , 250)&quot;&gt;%3CmxGraphModel%3E%3Croot%3E%3CmxCell%20id%3D%220%22%2F%3E%3CmxCell%20id%3D%221%22%20parent%3D%220%22%2F%3E%3CmxCell%20id%3D%222%22%20style%3D%22edgeStyle%3DorthogonalEdgeStyle%3Brounded%3D0%3BorthogonalLoop%3D1%3BjettySize%3Dauto%3Bhtml%3D1%3B%22%20edge%3D%221%22%20parent%3D%221%22%3E%3CmxGeometry%20relative%3D%221%22%20as%3D%22geometry%22%3E%3CmxPoint%20x%3D%22727%22%20y%3D%22490%22%20as%3D%22targetPoint%22%2F%3E%3CmxPoint%20x%3D%22727%22%20y%3D%22440%22%20as%3D%22sourcePoint%22%2F%3E%3CArray%20as%3D%22points%22%3E%3CmxPoint%20x%3D%22747%22%20y%3D%22440%22%2F%3E%3CmxPoint%20x%3D%22747%22%20y%3D%22490%22%2F%3E%3C%2FArray%3E%3C%2FmxGeometry%3E%3C%2FmxCell%3E%3CmxCell%20id%3D%223%22%20value%3D%22createStatusBarFromConfig%22%20style%3D%22text%3Bhtml%3D1%3Bresizable%3D0%3Bpoints%3D%5B%5D%3Balign%3Dcenter%3BverticalAlign%3Dmiddle%3BlabelBackgroundColor%3D%23ffffff%3B%22%20vertex%3D%221%22%20connectable%3D%220%22%20parent%3D%222%22%3E%3CmxGeometry%20x%3D%22-0.5556%22%20y%3D%22-11%22%20relative%3D%221%22%20as%3D%22geometry%22%3E%3CmxPoint%20x%3D%2212%22%20y%3D%2211%22%20as%3D%22offset%22%2F%3E%3C%2FmxGeometry%3E%3C%2FmxCell%3E%3C%2Froot%3E%3C%2FmxGraphModel%3E&lt;/span&gt;addStatusBarWindow" style="text;html=1;resizable=0;points=[];align=center;verticalAlign=middle;labelBackgroundColor=#ffffff;" vertex="1" connectable="0" parent="kO_2NhWMSLPStZXaVG_8-59">
          <mxGeometry x="-0.1296" y="-3" relative="1" as="geometry">
            <mxPoint as="offset"/>
          </mxGeometry>
        </mxCell>
        <mxCell id="kO_2NhWMSLPStZXaVG_8-65" value="" style="html=1;points=[];perimeter=orthogonalPerimeter;rounded=0;shadow=0;comic=0;labelBackgroundColor=none;strokeColor=#000000;strokeWidth=1;fillColor=#FFFFFF;fontFamily=Verdana;fontSize=12;fontColor=#000000;align=center;" vertex="1" parent="1">
          <mxGeometry x="1155" y="650" width="10" height="55" as="geometry"/>
        </mxCell>
        <mxCell id="kO_2NhWMSLPStZXaVG_8-66" value="addView" style="edgeStyle=orthogonalEdgeStyle;rounded=0;orthogonalLoop=1;jettySize=auto;html=1;entryX=-0.3;entryY=0.164;entryDx=0;entryDy=0;entryPerimeter=0;" edge="1" parent="1" source="7baba1c4bc27f4b0-25" target="kO_2NhWMSLPStZXaVG_8-65">
          <mxGeometry relative="1" as="geometry">
            <mxPoint x="1090" y="662.5" as="targetPoint"/>
          </mxGeometry>
        </mxCell>
      </root>
    </mxGraphModel>
  </diagram>
</mxfile>
